<svg width="17" height="18" viewBox="0 0 17 18" fill="none" xmlns="http://www.w3.org/2000/svg">
<path d="M10.5184 3.87185C10.8396 3.87185 11.1476 3.70976 11.3747 3.42124C11.6018 3.13272 11.7294 2.74141 11.7294 2.33338C11.7294 1.92536 11.6018 1.53404 11.3747 1.24553C11.1476 0.957009 10.8396 0.794922 10.5184 0.794922C10.1972 0.794922 9.88917 0.957009 9.66207 1.24553C9.43496 1.53404 9.30737 1.92536 9.30737 2.33338C9.30737 2.74141 9.43496 3.13272 9.66207 3.42124C9.88917 3.70976 10.1972 3.87185 10.5184 3.87185ZM11.2046 5.92313L9.64544 4.35902C9.20898 3.92313 8.59338 3.91672 8.15439 4.34941L6.05783 6.4071C5.28329 7.16992 5.33879 8.67633 6.16632 9.343L7.69269 10.5738V14.1283C7.69269 14.6956 8.05347 15.1539 8.50003 15.1539C8.94659 15.1539 9.30737 14.6956 9.30737 14.1283V10.0257C9.30737 9.68274 9.17365 9.36223 8.94911 9.17313L7.8693 8.25967L9.39063 6.70518L10.4175 7.75005C10.5613 7.89428 10.7379 7.97441 10.922 7.97441H12.5367C12.9833 7.97441 13.3441 7.51608 13.3441 6.94877C13.3441 6.38146 12.9833 5.92313 12.5367 5.92313H11.2046ZM1.83948 13.1026C1.83948 12.4906 2.03086 11.9036 2.37152 11.4708C2.71219 11.0381 3.17422 10.7949 3.65599 10.7949C4.13776 10.7949 4.5998 11.0381 4.94046 11.4708C5.28113 11.9036 5.47251 12.4906 5.47251 13.1026C5.47251 13.7147 5.28113 14.3016 4.94046 14.7344C4.5998 15.1672 4.13776 15.4103 3.65599 15.4103C3.17422 15.4103 2.71219 15.1672 2.37152 14.7344C2.03086 14.3016 1.83948 13.7147 1.83948 13.1026ZM6.88535 13.1026C6.88535 12.0145 6.54512 10.971 5.93949 10.2017C5.33387 9.43228 4.51247 9.00005 3.65599 9.00005C2.79951 9.00005 1.97811 9.43228 1.37249 10.2017C0.766871 10.971 0.426636 12.0145 0.426636 13.1026C0.426636 14.1907 0.766871 15.2342 1.37249 16.0036C1.97811 16.7729 2.79951 17.2052 3.65599 17.2052C4.51247 17.2052 5.33387 16.7729 5.93949 16.0036C6.54512 15.2342 6.88535 14.1907 6.88535 13.1026ZM11.5276 13.1026C11.5276 12.4906 11.7189 11.9036 12.0596 11.4708C12.4003 11.0381 12.8623 10.7949 13.3441 10.7949C13.8258 10.7949 14.2879 11.0381 14.6285 11.4708C14.9692 11.9036 15.1606 12.4906 15.1606 13.1026C15.1606 13.7147 14.9692 14.3016 14.6285 14.7344C14.2879 15.1672 13.8258 15.4103 13.3441 15.4103C12.8623 15.4103 12.4003 15.1672 12.0596 14.7344C11.7189 14.3016 11.5276 13.7147 11.5276 13.1026ZM16.5734 13.1026C16.5734 12.0145 16.2332 10.971 15.6276 10.2017C15.0219 9.43228 14.2005 9.00005 13.3441 9.00005C12.4876 9.00005 11.6662 9.43228 11.0606 10.2017C10.4549 10.971 10.1147 12.0145 10.1147 13.1026C10.1147 14.1907 10.4549 15.2342 11.0606 16.0036C11.6662 16.7729 12.4876 17.2052 13.3441 17.2052C14.2005 17.2052 15.0219 16.7729 15.6276 16.0036C16.2332 15.2342 16.5734 14.1907 16.5734 13.1026Z" fill="#2196F3"/>
</svg>
