<svg width="17" height="18" viewBox="0 0 17 18" fill="none" xmlns="http://www.w3.org/2000/svg">
<path d="M10.5185 3.87185C10.8397 3.87185 11.1477 3.70976 11.3748 3.42124C11.6019 3.13272 11.7295 2.74141 11.7295 2.33338C11.7295 1.92536 11.6019 1.53404 11.3748 1.24553C11.1477 0.957009 10.8397 0.794922 10.5185 0.794922C10.1973 0.794922 9.8893 0.957009 9.66219 1.24553C9.43508 1.53404 9.30749 1.92536 9.30749 2.33338C9.30749 2.74141 9.43508 3.13272 9.66219 3.42124C9.8893 3.70976 10.1973 3.87185 10.5185 3.87185ZM11.2047 5.92313L9.64557 4.35902C9.2091 3.92313 8.5935 3.91672 8.15451 4.34941L6.05795 6.4071C5.28341 7.16992 5.33891 8.67633 6.16644 9.343L7.69281 10.5738V14.1283C7.69281 14.6956 8.05359 15.1539 8.50015 15.1539C8.94671 15.1539 9.30749 14.6956 9.30749 14.1283V10.0257C9.30749 9.68274 9.17378 9.36223 8.94923 9.17313L7.86942 8.25967L9.39075 6.70518L10.4176 7.75005C10.5614 7.89428 10.738 7.97441 10.9222 7.97441H12.5368C12.9834 7.97441 13.3442 7.51608 13.3442 6.94877C13.3442 6.38146 12.9834 5.92313 12.5368 5.92313H11.2047ZM1.8396 13.1026C1.8396 12.4906 2.03098 11.9036 2.37165 11.4708C2.71231 11.0381 3.17435 10.7949 3.65612 10.7949C4.13789 10.7949 4.59992 11.0381 4.94058 11.4708C5.28125 11.9036 5.47263 12.4906 5.47263 13.1026C5.47263 13.7147 5.28125 14.3016 4.94058 14.7344C4.59992 15.1672 4.13789 15.4103 3.65612 15.4103C3.17435 15.4103 2.71231 15.1672 2.37165 14.7344C2.03098 14.3016 1.8396 13.7147 1.8396 13.1026ZM6.88547 13.1026C6.88547 12.0145 6.54524 10.971 5.93962 10.2017C5.33399 9.43228 4.51259 9.00005 3.65612 9.00005C2.79964 9.00005 1.97824 9.43228 1.37261 10.2017C0.766993 10.971 0.426758 12.0145 0.426758 13.1026C0.426758 14.1907 0.766993 15.2342 1.37261 16.0036C1.97824 16.7729 2.79964 17.2052 3.65612 17.2052C4.51259 17.2052 5.33399 16.7729 5.93962 16.0036C6.54524 15.2342 6.88547 14.1907 6.88547 13.1026ZM11.5277 13.1026C11.5277 12.4906 11.7191 11.9036 12.0597 11.4708C12.4004 11.0381 12.8624 10.7949 13.3442 10.7949C13.826 10.7949 14.288 11.0381 14.6287 11.4708C14.9693 11.9036 15.1607 12.4906 15.1607 13.1026C15.1607 13.7147 14.9693 14.3016 14.6287 14.7344C14.288 15.1672 13.826 15.4103 13.3442 15.4103C12.8624 15.4103 12.4004 15.1672 12.0597 14.7344C11.7191 14.3016 11.5277 13.7147 11.5277 13.1026ZM16.5735 13.1026C16.5735 12.0145 16.2333 10.971 15.6277 10.2017C15.0221 9.43228 14.2007 9.00005 13.3442 9.00005C12.4877 9.00005 11.6663 9.43228 11.0607 10.2017C10.4551 10.971 10.1148 12.0145 10.1148 13.1026C10.1148 14.1907 10.4551 15.2342 11.0607 16.0036C11.6663 16.7729 12.4877 17.2052 13.3442 17.2052C14.2007 17.2052 15.0221 16.7729 15.6277 16.0036C16.2333 15.2342 16.5735 14.1907 16.5735 13.1026Z" fill="black"/>
</svg>
