<svg width="17" height="18" viewBox="0 0 17 18" fill="none" xmlns="http://www.w3.org/2000/svg">
<path d="M12.9107 15.8998H2.83785C2.54296 15.8998 2.29075 16.1702 2.27911 16.5245C2.26359 16.8975 2.51191 17.2052 2.82233 17.2052H12.8952C13.1901 17.2052 13.4423 16.9348 13.4539 16.5805C13.4656 16.2075 13.2172 15.8998 12.9107 15.8998ZM14.0553 2.58979C14.0592 2.0863 13.8924 1.61543 13.582 1.26578C13.3026 0.958092 12.934 0.794922 12.5537 0.794922H1.93377C1.54964 0.794922 1.16939 0.962754 0.890016 1.27977C0.575724 1.63874 0.408878 2.12826 0.428279 2.64574C0.521402 5.08397 0.827934 7.22849 1.35175 9.01404C1.77857 10.4872 2.35283 11.7227 3.05513 12.6924C4.28902 14.3987 5.72467 14.9674 6.07776 14.9674H8.40973C8.62314 14.9674 9.37976 14.6318 10.1248 14.0583C10.9939 13.387 11.7699 12.3474 12.3791 11.0467C12.4567 11.0513 12.5343 11.056 12.608 11.056C13.6634 11.056 14.6568 10.6038 15.4056 9.77861C16.1584 8.94877 16.5735 7.84854 16.5735 6.67371C16.5697 4.86019 15.5686 3.24714 14.0553 2.58979ZM12.9029 9.72732C13.4539 8.11893 13.8186 6.1842 13.9816 3.97441C13.9816 3.97441 13.9816 3.96975 13.9855 3.97441C14.3851 4.20751 14.7266 4.54317 14.9866 4.94877C15.3125 5.45693 15.4832 6.05366 15.4832 6.67371C15.4832 8.25879 14.3502 9.56882 12.9029 9.72732Z" fill="#19BFD8"/>
</svg>
