<svg width="19" height="18" viewBox="0 0 19 18" fill="none" xmlns="http://www.w3.org/2000/svg">
<path d="M4.49168 0C4.49168 0 2.27816 1.47956 2.36202 2.53187C2.43318 3.42475 4.33084 3.54719 4.49168 4.43077C4.57642 4.89647 3.78179 5.6967 3.78179 5.6967C3.78179 5.6967 5.91145 4.69294 5.91145 3.7978C5.91145 2.90267 4.0125 2.7701 3.78179 1.8989C3.60987 1.24956 4.49168 0 4.49168 0ZM8.04111 0C8.04111 0 5.8276 1.47956 5.91145 2.53187C5.98262 3.42475 7.88028 3.54719 8.04111 4.43077C8.12586 4.89647 7.33123 5.6967 7.33123 5.6967C7.33123 5.6967 9.46089 4.69294 9.46089 3.7978C9.46089 2.90267 7.56194 2.7701 7.33123 1.8989C7.1593 1.24956 8.04111 0 8.04111 0ZM11.5906 0C11.5906 0 9.37703 1.47956 9.46089 2.53187C9.53206 3.42475 11.4297 3.54719 11.5906 4.43077C11.6753 4.89647 10.8807 5.6967 10.8807 5.6967C10.8807 5.6967 13.0103 4.69294 13.0103 3.7978C13.0103 2.90267 11.1114 2.7701 10.8807 1.8989C10.7087 1.24956 11.5906 0 11.5906 0ZM1.35455 6.68571C1.418 9.21553 2.19502 13.7841 4.66915 16.1011H11.4131C13.8872 13.7841 14.6643 9.21553 14.7277 6.68571H1.35455ZM15.5345 6.70332C15.5262 7.06538 15.5055 7.46494 15.4692 7.89239C16.7067 8.03718 17.669 8.98584 17.669 10.1275C17.669 11.3686 16.532 12.3824 15.14 12.3824C14.9453 12.3824 14.7559 12.362 14.5737 12.3245C14.4445 12.705 14.2997 13.0826 14.1371 13.4523C14.4568 13.5285 14.7929 13.5692 15.14 13.5692C17.2765 13.5692 19 12.0325 19 10.1275C19 8.3412 17.4847 6.87877 15.5345 6.70332ZM0 16.8132C0.0668625 17.0186 0.170994 17.2563 0.308579 17.4608C0.425577 17.6346 0.561033 17.7855 0.682512 17.8793C0.803903 17.9731 0.897874 18 0.942242 18H15.14C15.1844 18 15.2783 17.9732 15.3998 17.8793C15.5212 17.7855 15.6567 17.6346 15.7737 17.4608C15.9112 17.2563 16.0154 17.0186 16.0823 16.8132H0Z" fill="#2E9E41"/>
</svg>
