<svg width="17" height="18" viewBox="0 0 17 18" fill="none" xmlns="http://www.w3.org/2000/svg">
<path d="M7.99739 0.929537C8.30641 0.75005 8.68796 0.75005 9.00014 0.929537L14.4175 4.07377L14.5531 4.12826V4.1571L16.0635 5.03531C16.4608 5.26608 16.6564 5.74044 16.5397 6.18915C16.423 6.63787 16.0225 6.95197 15.5653 6.95197H1.43537C0.978145 6.95197 0.577676 6.63787 0.461004 6.18915C0.344332 5.74044 0.539837 5.26608 0.937152 5.03531L2.44443 4.1571V4.12826L2.58317 4.07697L7.99739 0.929537ZM2.44443 7.97441H4.46254V14.1283H5.72386V7.97441H7.74197V14.1283H9.25556V7.97441H11.2737V14.1283H12.535V7.97441H14.5531V14.2661C14.572 14.2757 14.5909 14.2885 14.6099 14.3013L16.1234 15.327C16.4924 15.577 16.6595 16.0449 16.5302 16.4776C16.4009 16.9103 16.0068 17.2052 15.5622 17.2052H1.43537C0.990758 17.2052 0.599749 16.9103 0.470464 16.4776C0.341179 16.0449 0.50515 15.577 0.87724 15.327L2.39082 14.3013C2.40974 14.2885 2.42866 14.2789 2.44758 14.2661V7.97441H2.44443Z" fill="#2E9E41"/>
</svg>
