<svg width="17" height="18" viewBox="0 0 17 18" fill="none" xmlns="http://www.w3.org/2000/svg">
<path d="M7.99727 0.929537C8.30629 0.75005 8.68784 0.75005 9.00002 0.929537L14.4174 4.07377L14.553 4.12826V4.1571L16.0634 5.03531C16.4607 5.26608 16.6562 5.74044 16.5396 6.18915C16.4229 6.63787 16.0224 6.95197 15.5652 6.95197H1.43525C0.978023 6.95197 0.577554 6.63787 0.460882 6.18915C0.34421 5.74044 0.539715 5.26608 0.93703 5.03531L2.44431 4.1571V4.12826L2.58305 4.07697L7.99727 0.929537ZM2.44431 7.97441H4.46242V14.1283H5.72374V7.97441H7.74185V14.1283H9.25543V7.97441H11.2735V14.1283H12.5349V7.97441H14.553V14.2661C14.5719 14.2757 14.5908 14.2885 14.6097 14.3013L16.1233 15.327C16.4923 15.577 16.6594 16.0449 16.5301 16.4776C16.4008 16.9103 16.0066 17.2052 15.562 17.2052H1.43525C0.990636 17.2052 0.599627 16.9103 0.470342 16.4776C0.341057 16.0449 0.505028 15.577 0.877118 15.327L2.3907 14.3013C2.40962 14.2885 2.42854 14.2789 2.44746 14.2661V7.97441H2.44431Z" fill="#F44336"/>
</svg>
