<svg width="17" height="18" viewBox="0 0 17 18" fill="none" xmlns="http://www.w3.org/2000/svg">
<path d="M12.2673 4.62416H12.2703H12.2673ZM16.0196 3.53014H12.9565L13.2566 2.311L14.5456 1.86485C14.8197 1.77014 14.9829 1.47408 14.9038 1.191C14.8837 1.11979 14.8496 1.05348 14.8035 0.996077C14.7574 0.938679 14.7003 0.891395 14.6357 0.857092C14.5711 0.822788 14.5003 0.802181 14.4276 0.796521C14.3549 0.79086 14.2819 0.800264 14.2129 0.824162L12.6319 1.37117C12.5468 1.40068 12.4703 1.4514 12.4094 1.51871C12.3485 1.58602 12.3052 1.66776 12.2834 1.75647L11.8471 3.53014H7.43855C7.14893 3.53014 6.90034 3.75647 6.88588 4.05083C6.88237 4.12479 6.89368 4.1987 6.91911 4.26809C6.94454 4.33748 6.98357 4.4009 7.03382 4.45451C7.08408 4.50811 7.14453 4.55079 7.21149 4.57995C7.27846 4.60911 7.35056 4.62415 7.42341 4.62416H7.51592L7.54955 4.92023C7.55748 4.98937 7.59013 5.05314 7.64129 5.09941C7.69246 5.14568 7.75858 5.17122 7.82707 5.17117C9.13895 5.17117 10.3048 5.54382 11.1949 6.24878C11.69 6.63646 12.0913 7.13404 12.3682 7.70348C12.5232 8.02378 12.6376 8.36279 12.7086 8.71237C12.7227 8.78049 12.7624 8.84033 12.8193 8.8792C13.2769 9.19477 13.6144 9.65998 13.7759 10.1975C13.9373 10.7351 13.9129 11.3126 13.7066 11.8341C13.6827 11.8944 13.6809 11.9615 13.7016 12.0231C13.8208 12.3702 13.8817 12.7352 13.8819 13.1028C13.8819 13.8666 13.6262 14.5944 13.162 15.1524C12.8989 15.4708 12.5678 15.7242 12.1939 15.8932C12.1293 15.9222 12.0784 15.9759 12.0523 16.0426C11.9126 16.4125 11.7153 16.7572 11.468 17.0635C11.4577 17.0759 11.4511 17.0911 11.449 17.1072C11.4469 17.1233 11.4493 17.1396 11.456 17.1544C11.4627 17.1691 11.4734 17.1816 11.4869 17.1904C11.5003 17.1992 11.516 17.2039 11.532 17.204H13.1873C13.5926 17.2023 13.9825 17.0465 14.2804 16.7672C14.5783 16.4879 14.7626 16.1054 14.7969 15.6949L15.9473 4.62416H16.0347C16.1076 4.62425 16.1798 4.60928 16.2469 4.58015C16.3139 4.55103 16.3744 4.50837 16.4248 4.45475C16.4751 4.40114 16.5142 4.33769 16.5396 4.26825C16.5651 4.19882 16.5764 4.12485 16.5729 4.05083C16.5588 3.75647 16.3092 3.53014 16.0196 3.53014Z" fill="#CF7929"/>
<path d="M3.54466 11.1882C3.65081 11.1877 3.75601 11.2086 3.85416 11.2497C3.95232 11.2908 4.04148 11.3512 4.1165 11.4275L4.63823 11.9578C4.65073 11.9705 4.66557 11.9806 4.6819 11.9875C4.69823 11.9944 4.71574 11.9979 4.73342 11.9979C4.75111 11.9979 4.76862 11.9944 4.78495 11.9875C4.80128 11.9806 4.81612 11.9705 4.82862 11.9578L5.34934 11.4275C5.42436 11.3512 5.51352 11.2908 5.61168 11.2497C5.70984 11.2086 5.81503 11.1877 5.92118 11.1882H12.5337C12.5691 11.1886 12.6041 11.1819 12.6369 11.1684C12.6697 11.155 12.6996 11.1352 12.7248 11.11C12.75 11.0849 12.7702 11.055 12.784 11.0219C12.7979 10.9889 12.8052 10.9534 12.8055 10.9174V10.9147C12.8051 10.5996 12.6979 10.2942 12.5018 10.0501C12.3057 9.80596 12.0328 9.63801 11.7291 9.57454C11.7015 8.5595 11.2918 7.70992 10.5346 7.113C9.83428 6.55779 8.89848 6.26514 7.82711 6.26514H5.40517C3.11039 6.26514 1.55598 7.59061 1.50317 9.57454C1.19946 9.63801 0.926564 9.80596 0.730485 10.0501C0.534407 10.2942 0.427137 10.5996 0.426758 10.9147C0.426758 10.9872 0.45511 11.0568 0.505577 11.1081C0.556043 11.1594 0.624491 11.1882 0.695862 11.1882H3.54466ZM6.14319 12.2822C6.10784 12.2822 6.07283 12.2893 6.04016 12.303C6.0075 12.3167 5.97781 12.3368 5.9528 12.3622L5.20806 13.1195C5.0819 13.2477 4.91081 13.3197 4.73242 13.3197C4.55402 13.3197 4.38294 13.2477 4.25677 13.1195L3.51203 12.3622C3.48702 12.3368 3.45733 12.3167 3.42467 12.303C3.392 12.2893 3.35699 12.2822 3.32164 12.2822H0.987166C0.86074 12.2817 0.738186 12.3265 0.641173 12.4089C0.54416 12.4913 0.478936 12.6059 0.457032 12.7325C0.436824 12.8548 0.426697 12.9787 0.426758 13.1027C0.426758 14.1486 1.13753 15.0005 2.01649 15.0173C2.09823 15.5342 2.29602 16.0012 2.59371 16.3667C3.03404 16.9072 3.67417 17.2053 4.39604 17.2053H8.83625C9.55812 17.2053 10.1982 16.9072 10.6386 16.366C10.9363 16.0005 11.1341 15.5335 11.2158 15.0166C12.0948 15.0005 12.8055 14.1486 12.8055 13.1021C12.8056 12.978 12.7955 12.8542 12.7752 12.7318C12.7532 12.6054 12.6879 12.4909 12.5909 12.4087C12.4939 12.3264 12.3714 12.2816 12.2451 12.2822H6.14319Z" fill="#CF7929"/>
</svg>
