<svg width="17" height="18" viewBox="0 0 17 18" fill="none" xmlns="http://www.w3.org/2000/svg">
<path d="M12.2672 4.62416H12.2702H12.2672ZM16.0195 3.53014H12.9565L13.2565 2.311L14.5455 1.86485C14.8197 1.77014 14.9828 1.47408 14.9038 1.191C14.8836 1.11979 14.8495 1.05348 14.8034 0.996077C14.7573 0.938679 14.7003 0.891395 14.6356 0.857092C14.571 0.822788 14.5002 0.802181 14.4276 0.796521C14.3549 0.79086 14.2818 0.800264 14.2128 0.824162L12.6319 1.37117C12.5467 1.40068 12.4702 1.4514 12.4093 1.51871C12.3484 1.58602 12.3051 1.66776 12.2834 1.75647L11.8471 3.53014H7.43849C7.14887 3.53014 6.90028 3.75647 6.88582 4.05083C6.88231 4.12479 6.89362 4.1987 6.91905 4.26809C6.94448 4.33748 6.9835 4.4009 7.03376 4.45451C7.08402 4.50811 7.14447 4.55079 7.21143 4.57995C7.2784 4.60911 7.3505 4.62415 7.42335 4.62416H7.51586L7.54949 4.92023C7.55741 4.98937 7.59006 5.05314 7.64123 5.09941C7.6924 5.14568 7.75852 5.17122 7.82701 5.17117C9.13889 5.17117 10.3048 5.54382 11.1948 6.24878C11.6899 6.63646 12.0912 7.13404 12.3681 7.70348C12.5231 8.02378 12.6375 8.36279 12.7085 8.71237C12.7227 8.78049 12.7624 8.84033 12.8192 8.8792C13.2768 9.19477 13.6144 9.65998 13.7758 10.1975C13.9372 10.7351 13.9128 11.3126 13.7066 11.8341C13.6826 11.8944 13.6808 11.9615 13.7015 12.0231C13.8207 12.3702 13.8817 12.7352 13.8818 13.1028C13.8818 13.8666 13.6262 14.5944 13.162 15.1524C12.8988 15.4708 12.5677 15.7242 12.1939 15.8932C12.1292 15.9222 12.0783 15.9759 12.0523 16.0426C11.9126 16.4125 11.7153 16.7572 11.468 17.0635C11.4577 17.0759 11.4511 17.0911 11.449 17.1072C11.4468 17.1233 11.4493 17.1396 11.456 17.1544C11.4627 17.1691 11.4734 17.1816 11.4868 17.1904C11.5003 17.1992 11.5159 17.2039 11.5319 17.204H13.1872C13.5925 17.2023 13.9825 17.0465 14.2804 16.7672C14.5783 16.4879 14.7625 16.1054 14.7968 15.6949L15.9472 4.62416H16.0347C16.1076 4.62425 16.1797 4.60928 16.2468 4.58015C16.3138 4.55103 16.3744 4.50837 16.4247 4.45475C16.475 4.40114 16.5141 4.33769 16.5396 4.26825C16.5651 4.19882 16.5764 4.12485 16.5729 4.05083C16.5587 3.75647 16.3092 3.53014 16.0195 3.53014Z" fill="#FF7D03"/>
<path d="M3.54454 11.1883C3.65069 11.1878 3.75588 11.2087 3.85404 11.2498C3.95219 11.2909 4.04136 11.3513 4.11638 11.4277L4.63811 11.9579C4.6506 11.9706 4.66544 11.9807 4.68178 11.9876C4.69811 11.9945 4.71562 11.998 4.7333 11.998C4.75099 11.998 4.76849 11.9945 4.78483 11.9876C4.80116 11.9807 4.816 11.9706 4.8285 11.9579L5.34921 11.4277C5.42423 11.3513 5.5134 11.2909 5.61156 11.2498C5.70971 11.2087 5.81491 11.1878 5.92106 11.1883H12.5336C12.5689 11.1887 12.604 11.182 12.6368 11.1686C12.6696 11.1552 12.6994 11.1353 12.7247 11.1102C12.7499 11.085 12.77 11.0551 12.7839 11.022C12.7977 10.989 12.805 10.9535 12.8054 10.9176V10.9148C12.805 10.5997 12.6978 10.2943 12.5017 10.0502C12.3056 9.80608 12.0327 9.63813 11.729 9.57466C11.7014 8.55962 11.2917 7.71005 10.5345 7.11312C9.83416 6.55791 8.89835 6.26526 7.82698 6.26526H5.40505C3.11027 6.26526 1.55586 7.59073 1.50305 9.57466C1.19934 9.63813 0.926441 9.80608 0.730363 10.0502C0.534284 10.2943 0.427015 10.5997 0.426636 10.9148C0.426636 10.9874 0.454988 11.0569 0.505455 11.1082C0.555921 11.1595 0.624369 11.1883 0.69574 11.1883H3.54454ZM6.14307 12.2824C6.10772 12.2823 6.07271 12.2894 6.04004 12.3031C6.00737 12.3168 5.97769 12.337 5.95268 12.3624L5.20793 13.1196C5.08177 13.2478 4.91069 13.3198 4.73229 13.3198C4.5539 13.3198 4.38281 13.2478 4.25665 13.1196L3.51191 12.3624C3.4869 12.337 3.45721 12.3168 3.42454 12.3031C3.39188 12.2894 3.35687 12.2823 3.32152 12.2824H0.987044C0.860618 12.2818 0.738064 12.3267 0.641051 12.4091C0.544038 12.4915 0.478813 12.6061 0.45691 12.7326C0.436702 12.855 0.426575 12.9788 0.426636 13.1029C0.426636 14.1487 1.13741 15.0006 2.01637 15.0174C2.09811 15.5343 2.2959 16.0013 2.59359 16.3668C3.03391 16.9073 3.67404 17.2054 4.39591 17.2054H8.83612C9.55799 17.2054 10.1981 16.9073 10.6384 16.3661C10.9361 16.0006 11.1339 15.5336 11.2157 15.0167C12.0946 15.0006 12.8054 14.1487 12.8054 13.1022C12.8055 12.9781 12.7953 12.8543 12.7751 12.7319C12.7531 12.6055 12.6878 12.4911 12.5908 12.4088C12.4938 12.3265 12.3713 12.2818 12.245 12.2824H6.14307Z" fill="#FF7D03"/>
</svg>
